# xmcd
#
# Track frame offsets:
#	150
#	16578
#	32545
#	50393
#	69061
#	86013
#	105133
#	121805
#	137589
#	155071
#	170696
#	187396
#	204624
#	222863
#	238620
#	257052
#	275409
#
# Disc length: 3864 seconds
#
# Revision: 0
# Processed by: cddbd v1.5.2PL0 Copyright (c) Steve Scherf et al.
# Submitted via: audiograbber 1.83.01
#
DISCID=e40f1611
DTITLE=CHARTBUSTER - Country Hits 2007
DYEAR=2007
DGENRE=Karaoke
TTITLE0=Josh Turner feat Trisha Yearwood - Firecracker 
TTITLE1=Dierks Bentley  - Free And Easy (Down The Road I Go)
TTITLE2=Carrie Underwood  - So Small
TTITLE3=Brad Paisley - Online
TTITLE4=Clay Walker - Fall
TTITLE5=Rascal Flatts  - Take Me There
TTITLE6=Terri Clark  - In My Next Life
TTITLE7=Brooks and Dunn  - Proud Of The House We Built 
TTITLE8=Darryl Worley  - Living In The Here And Now 
TTITLE9=Amy Dalley  - Good Kind Of Crazy
TTITLE10=Gary Allan  - A Feelin' Like That 
TTITLE11=Toby Keith - Love Me If You Can 
TTITLE12=Jason Michael Carroll  - Livin' Our Love Song
TTITLE13=Montgomery Gentry  - What Do Ya Think About That 
TTITLE14=Carolyn Dawn Johnson  - Got A Good Day 
TTITLE15=George Strait  - How 'Bout Them Cowgirls 
TTITLE16=Josh Turner - Ralph Stanley  - Me And God
EXTD=
EXTT0=
EXTT1=
EXTT2=
EXTT3=
EXTT4=
EXTT5=
EXTT6=
EXTT7=
EXTT8=
EXTT9=
EXTT10=
EXTT11=
EXTT12=
EXTT13=
EXTT14=
EXTT15=
EXTT16=
PLAYORDER=
